

Release info:

General
Format                                   : Matroska
Format version                           : Version 2
File size                                : 693 MiB
Duration                                 : 1h 34mn
Overall bit rate mode                    : Variable
Overall bit rate                         : 1 026 Kbps
Movie name                               : Jekhane Bhooter Bhoy 2012

Video
ID                                       : 1
Format                                   : MPEG-4 Visual
Format profile                           : Advanced Simple@L5
Format settings, BVOP                    : No
Format settings, QPel                    : No
Format settings, GMC                     : No warppoints
Format settings, Matrix                  : Custom
Codec ID                                 : V_MS/VFW/FOURCC / XVID
Codec ID/Hint                            : XviD
Duration                                 : 1h 34mn
Bit rate                                 : 898 Kbps
Width                                    : 720 pixels
Height                                   : 400 pixels
Display aspect ratio                     : 16:9
Frame rate mode                          : Constant
Frame rate                               : 23.976 fps
Color space                              : YUV
Chroma subsampling                       : 4:2:0
Bit depth                                : 8 bits
Scan type                                : Progressive
Compression mode                         : Lossy
Bits/(Pixel*Frame)                       : 0.130
Stream size                              : 606 MiB (88%)
Title                                    : Jekhane Bhooter Bhoy 2012
Language                                 : Bengali
Default                                  : Yes
Forced                                   : No

Audio
ID                                       : 2
Format                                   : MPEG Audio
Format version                           : Version 1
Format profile                           : Layer 3
Mode                                     : Joint stereo
Muxing mode                              : Header stripping
Codec ID                                 : A_MPEG/L3
Codec ID/Hint                            : MP3
Duration                                 : 1h 34mn
Bit rate mode                            : Variable
Bit rate                                 : 108 Kbps
Nominal bit rate                         : 128 Kbps
Channel(s)                               : 2 channels
Sampling rate                            : 48.0 KHz
Compression mode                         : Lossy
Stream size                              : 72.7 MiB (10%)
Title                                    : Jekhane Bhooter Bhoy 2012
Writing library                          : LAME3.98r
Language                                 : Bengali
Default                                  : Yes
Forced                                   : No

Source:
credit to original movie ripper KINGMAX (Thanks)

IMDB Info:

Sandip Ray's next where 4 ghost stories are spun together in a comical twist surrounding unusual events.The film is a collection of four short films based on four Bengali short stories- Sharadindu Bandyopadhyay's - Bhut Bhabishyat, Satyajit Ray's- Brown Saheber Bari, Anath Babur Bhoy and Lucknow-er Duel. 

Director: Sandip Ray
Writers: Satyajit Ray (story), Saradindu Bandopaddhyay (story), 
Stars: Dwijen Banerjee, Paran Banerjee and Biswajit Chakraborty

Genres: Adventure

Country: India
Language: Bengali
 
http://www.imdb.com/title/tt2551650/

Screen Shot:
 
http://img.doridro.com/files/46182.jpg